<svg xmlns="http://www.w3.org/2000/svg" viewBox="0 0 192 192" width="192" height="192">
  <defs>
    <linearGradient id="bg" x1="0%" y1="0%" x2="100%" y2="100%">
      <stop offset="0%" stop-color="#1a7a6d"/>
      <stop offset="100%" stop-color="#16a34a"/>
    </linearGradient>
    <linearGradient id="ring" x1="0%" y1="0%" x2="100%" y2="100%">
      <stop offset="0%" stop-color="#fde7c9"/>
      <stop offset="100%" stop-color="#d97706"/>
    </linearGradient>
  </defs>
  <rect x="0" y="0" width="192" height="192" rx="42" ry="42" fill="url(#bg)"/>
  <circle cx="142" cy="45" r="52" fill="#ffffff" fill-opacity="0.08"/>
  <circle cx="38" cy="158" r="45" fill="#fde7c9" fill-opacity="0.12"/>
  <circle cx="96" cy="96" r="62" fill="none" stroke="url(#ring)" stroke-width="4" stroke-opacity="0.7"/>
  <rect x="42" y="48" width="108" height="108" rx="21" ry="21" fill="#ffffff" fill-opacity="0.98"/>
  <g transform="translate(96 81)">
    <g stroke="#d97706" stroke-width="3" stroke-linecap="round" opacity="0.9">
      <line x1="0" y1="-42" x2="0" y2="-52"/>
      <line x1="0" y1="42" x2="0" y2="52"/>
      <line x1="-42" y1="0" x2="-52" y2="0"/>
      <line x1="42" y1="0" x2="52" y2="0"/>
      <line x1="-30" y1="-30" x2="-37" y2="-37"/>
      <line x1="30" y1="-30" x2="37" y2="-37"/>
      <line x1="-30" y1="30" x2="-37" y2="37"/>
      <line x1="30" y1="30" x2="37" y2="37"/>
    </g>
    <circle cx="0" cy="0" r="27" fill="#fbbf24"/>
    <circle cx="-8" cy="-6" r="4" fill="#fde7c9" fill-opacity="0.7"/>
  </g>
  <g font-family="Noto Serif SC, -apple-system, PingFang SC, Microsoft YaHei, serif" text-anchor="middle">
    <text x="96" y="134" font-size="15" font-weight="900" fill="#0f2724" letter-spacing="1.5">交大·2026</text>
    <text x="96" y="151" font-size="10.5" font-weight="700" fill="#1a7a6d" letter-spacing="2">暑假服务</text>
  </g>
</svg>
